<svg role="img" width="256" height="256" viewBox="0 0 24 24" xmlns="http://www.w3.org/2000/svg"><title>Google Chat</title><path fill="#00AC47" d="M1.637 0C.733 0 0 .733 0 1.637v16.5c0 .904.733 1.636 1.637 1.636h3.955v3.323c0 .804.97 1.207 1.539.638l3.963-3.96h11.27c.903 0 1.636-.733 1.636-1.637V5.592L18.408 0Z"/><path fill="#1A73E8" d="M18.408 0H1.637C.733 0 0 .733 0 1.637v16.5c0 .904.733 1.636 1.637 1.636h3.955v3.323c0 .804.97 1.207 1.539.638l3.963-3.96h11.27c.903 0 1.636-.733 1.636-1.637V5.592L18.408 0Zm-4.001 14.182H5.592v-2.545h8.815v2.545Zm3.955-4.59H5.592V7.047h12.77v2.545Z"/></svg>